<?xml version="1.0" standalone="no"?>
<!DOCTYPE svg PUBLIC "-//W3C//DTD SVG 20010904//EN"
 "http://www.w3.org/TR/2001/REC-SVG-20010904/DTD/svg10.dtd">
<svg version="1.0" xmlns="http://www.w3.org/2000/svg"
 width="2013.000000pt" height="2014.000000pt" viewBox="0 0 2013.000000 2014.000000"
 preserveAspectRatio="xMidYMid meet">
<metadata>
Created by potrace 1.16, written by Peter Selinger 2001-2019
</metadata>
<g transform="translate(0.000000,2014.000000) scale(0.100000,-0.100000)"
fill="#000000" stroke="none">
<path d="M7920 10675 l0 -2175 45 0 45 0 0 2175 0 2175 -45 0 -45 0 0 -2175z"/>
<path d="M4328 12537 c-47 -56 -104 -123 -125 -149 -91 -113 -502 -595 -521
-612 -20 -17 -25 -18 -79 -4 -56 15 -489 133 -525 144 -13 4 -18 0 -18 -15 0
-11 140 -296 311 -633 172 -337 363 -714 425 -838 63 -124 228 -450 367 -725
147 -291 259 -501 268 -503 11 -2 46 61 124 220 60 123 193 395 297 606 103
211 188 385 188 387 0 1 79 164 176 361 468 952 575 1177 564 1188 -8 8 -33 3
-88 -16 -89 -31 -435 -150 -503 -173 -52 -18 -69 -14 -90 20 -8 14 -65 89
-127 168 -61 78 -204 262 -318 410 -126 164 -212 267 -222 267 -9 0 -56 -46
-104 -103z"/>
<path d="M11995 11213 c-291 -636 -533 -1165 -537 -1175 -7 -17 1 -18 150 -18
l157 0 126 278 126 277 514 0 513 0 126 -277 125 -277 159 -1 c123 0 157 3
153 13 -28 71 -1071 2337 -1076 2337 -3 0 -244 -521 -536 -1157z m734 72 l189
-430 -194 -3 c-107 -1 -281 -1 -387 0 l-193 3 163 370 c220 501 225 511 229
500 2 -5 89 -203 193 -440z"/>
<path d="M9681 12299 c-210 -55 -371 -192 -437 -374 -68 -188 -29 -393 104
-536 93 -101 186 -156 467 -276 82 -35 179 -81 215 -103 78 -46 154 -124 181
-186 98 -220 -41 -508 -273 -570 -240 -64 -494 103 -528 347 -5 34 -10 62 -12
64 -4 4 -281 -55 -287 -61 -10 -10 41 -182 74 -247 97 -193 250 -317 455 -368
71 -18 104 -21 210 -17 106 4 138 10 213 35 117 41 186 84 273 170 57 57 82
92 118 165 61 123 79 199 79 328 1 204 -47 327 -177 455 -106 105 -198 158
-441 256 -291 117 -380 184 -405 304 -28 135 45 256 198 328 62 30 75 32 172
32 99 0 110 -2 171 -32 62 -31 114 -78 165 -148 l20 -29 112 68 c62 37 112 73
112 81 0 22 -84 128 -145 182 -68 61 -174 116 -265 137 -94 22 -275 20 -369
-5z"/>
<path d="M17064 12305 c-489 -88 -868 -465 -960 -953 -22 -115 -22 -320 0
-433 79 -414 376 -755 774 -889 290 -97 612 -78 895 52 l87 41 0 174 0 175
-27 -21 c-200 -153 -362 -213 -578 -213 -333 -1 -624 183 -780 492 -110 217
-127 489 -45 724 65 188 203 362 372 469 301 192 703 174 995 -44 29 -22 55
-39 58 -39 3 0 4 75 3 168 l-3 167 -60 32 c-77 42 -194 81 -293 98 -96 18
-343 18 -438 0z"/>
<path d="M14640 11150 l0 -1130 145 0 145 0 0 1130 0 1130 -145 0 -145 0 0
-1130z"/>
<path d="M2546 11568 c-191 -172 -305 -280 -305 -292 -1 -11 29 -80 65 -155
36 -75 79 -170 96 -211 16 -41 42 -98 57 -125 16 -28 54 -111 86 -185 32 -74
73 -165 91 -202 19 -37 34 -76 34 -85 0 -10 -61 -92 -136 -183 -75 -91 -163
-199 -198 -240 -34 -41 -88 -111 -121 -155 -33 -43 -83 -104 -111 -135 -82
-90 -374 -449 -374 -460 0 -7 309 -10 958 -10 751 0 962 -3 975 -12 15 -12 17
-42 19 -267 2 -159 7 -256 13 -258 14 -4 548 494 559 522 7 18 3 35 -19 76
-225 435 -452 859 -468 876 -20 22 -27 23 -246 25 l-226 3 -3 471 -2 472 -69
133 c-295 578 -344 669 -356 669 -8 0 -151 -123 -319 -272z"/>
<path d="M5937 11737 c-30 -57 -123 -236 -206 -399 l-151 -297 0 -456 c0 -295
-4 -463 -10 -476 -10 -18 -23 -19 -228 -19 -159 0 -223 -3 -235 -12 -23 -19
-497 -923 -497 -950 0 -17 66 -85 256 -263 285 -267 299 -279 314 -270 6 4 10
100 10 264 l0 259 23 6 c12 3 451 6 976 6 824 0 952 2 948 14 -7 18 -322 401
-387 471 -25 28 -73 86 -105 130 -33 44 -91 118 -130 165 -250 298 -315 382
-315 406 0 13 17 59 39 102 21 42 58 122 81 177 23 55 62 139 86 188 24 48 57
120 74 161 16 41 56 128 90 194 33 65 60 126 60 135 0 18 -606 567 -626 567
-7 0 -37 -46 -67 -103z"/>
<path d="M10960 10298 c-67 -46 -97 -118 -80 -192 11 -48 36 -83 81 -114 46
-32 148 -28 197 7 103 73 91 251 -21 304 -52 25 -136 22 -177 -5z"/>
<path d="M13920 10298 c-67 -46 -97 -118 -80 -192 11 -48 36 -83 81 -114 46
-32 148 -28 197 7 103 73 91 251 -21 304 -52 25 -136 22 -177 -5z"/>
<path d="M15480 10298 c-67 -46 -97 -118 -80 -192 11 -48 36 -83 81 -114 46
-32 148 -28 197 7 103 73 91 251 -21 304 -52 25 -136 22 -177 -5z"/>
<path d="M10116 9420 c-17 -69 -96 -476 -96 -492 0 -14 8 -18 34 -18 l33 0 16
88 c9 48 22 120 28 159 l12 73 71 -161 c39 -89 75 -162 80 -163 5 0 38 67 75
151 36 83 69 154 72 157 3 3 16 -54 28 -127 34 -198 21 -177 105 -177 l72 0
29 60 29 60 111 0 111 0 29 -60 c28 -58 30 -60 66 -60 l38 0 -23 53 c-46 102
-205 447 -214 463 -8 15 -51 -73 -220 -445 l-29 -63 -48 243 c-26 134 -51 252
-54 262 -5 12 -33 -44 -91 -177 -82 -188 -85 -194 -98 -168 -7 15 -46 103 -86
197 -60 136 -76 165 -80 145z"/>
<path d="M11080 9178 l0 -268 35 0 35 0 2 178 3 178 179 -188 c99 -103 183
-188 188 -188 4 0 8 119 8 265 l0 265 -35 0 -35 0 0 -185 0 -186 -117 123
c-65 68 -150 157 -190 198 l-73 75 0 -267z"/>
<path d="M9240 9165 l0 -255 35 0 35 0 0 255 0 255 -35 0 -35 0 0 -255z"/>
<path d="M9400 9165 l0 -255 35 0 35 0 0 255 0 255 -35 0 -35 0 0 -255z"/>
<path d="M9510 9385 l0 -35 60 0 60 0 0 -220 0 -220 35 0 35 0 0 220 0 220 60
0 60 0 0 35 0 35 -155 0 -155 0 0 -35z"/>
<path d="M11610 9167 l0 -257 86 0 c103 0 156 12 209 48 109 75 130 264 40
369 -49 58 -114 83 -235 90 l-100 6 0 -256z m227 154 c60 -30 87 -73 91 -146
7 -116 -60 -186 -190 -201 l-58 -7 0 193 0 193 58 -6 c32 -2 77 -14 99 -26z"/>
<path d="M12050 9165 l0 -255 35 0 35 0 0 255 0 255 -35 0 -35 0 0 -255z"/>
</g>
</svg>
